<svg id="Layer_2" data-name="Layer 2" xmlns="http://www.w3.org/2000/svg" xmlns:xlink="http://www.w3.org/1999/xlink" viewBox="0 0 400 300"><defs><linearGradient id="linear-gradient" x1="195.1" y1="100.78" x2="221.18" y2="81.54" gradientUnits="userSpaceOnUse"><stop offset="0" stop-color="#8997e8"/><stop offset="1" stop-color="#2e3192"/></linearGradient><linearGradient id="linear-gradient-2" x1="173.28" y1="104.28" x2="192.12" y2="90.38" xlink:href="#linear-gradient"/><linearGradient id="linear-gradient-3" x1="306.28" y1="184.64" x2="332.35" y2="165.4" xlink:href="#linear-gradient"/><linearGradient id="linear-gradient-4" x1="106.73" y1="236.81" x2="222.74" y2="151.24" xlink:href="#linear-gradient"/></defs><title>A</title><path d="M388.6,143.84,240.27,57.58a7,7,0,0,0-7,0l-221.82,127a7,7,0,0,0,0,12.16l141.85,81.9a22.9,22.9,0,0,0,22.89,0L388.58,156A7,7,0,0,0,388.6,143.84Z" fill="#8997e8"/><path d="M188.62,103.91a3.59,3.59,0,0,1-.45-5.9c.63-.51,1.16-.94,1.44-1.12A94.73,94.73,0,0,1,211,87.14l12.69-4,5,.58a281.5,281.5,0,0,1-34.66,23.3Z" fill="url(#linear-gradient)"/><path d="M168.6,106.54a2.6,2.6,0,0,1-.33-4.26c.46-.37.84-.68,1-.81a68.44,68.44,0,0,1,15.49-7c3.06-1,7.52-2.58,10.58-3.53l2.21,1.1a203.38,203.38,0,0,1-25,16.84Z" fill="url(#linear-gradient-2)"/><path d="M299.8,187.77a3.59,3.59,0,0,1-.45-5.9c.63-.51,1.16-.94,1.44-1.12A94.73,94.73,0,0,1,322.22,171l12.69-4,5,.58a281.5,281.5,0,0,1-34.66,23.3Z" fill="url(#linear-gradient-3)"/><path d="M136.17,268.57l-7.57-4.37L363.4,128.63l8.1,4.71L136.17,268.57" fill="#a2b3f9"/><path d="M34.35,209.53l-7.57-4.37L261.58,69.59l8.1,4.71L34.35,209.53" fill="#a2b3f9"/><polygon points="54.87 221.79 122.58 183.03 185.97 145.25 211.58 130.25 265.26 173.15 116.58 257.6 54.87 221.79" fill="url(#linear-gradient-4)"/><path d="M110.61,176.08l6.71-11.31c7.35-5.74,25.51-19.26,25.51-19.26,5.25-6.6,19.71-21,19.71-21,10.28-7.56,48.67-28,51.56-28.35s12.95,1.89,14.5,2,6.25-3.06,6.25-3.06c13.94,1.15,27.57,12.58,34.08,17.53a17.53,17.53,0,0,1,6.62,12.69s.69,23.88.29,25.14-4.26,4-4.26,4,.13-13.46-9.61-8.69S250.12,167.15,249.22,168s-48.51,28.39-59.05,34.49c.1-3-.28-6.06-2.53-8.21-2.62-2.5-6.48-2.17-9.58-.91a16.77,16.77,0,0,0-7.78,6.17c-2.8,3.45-4.15,8-4.82,12.31-.08.54-.37,8-.49,8-25.68,8.41-54.14-22.42-54.71-24.83S110.61,176.08,110.61,176.08Z" fill="#dd9933"/><path d="M110.56,176.11l6.71-11.31c7.35-5.74,25.51-19.26,25.51-19.26,5.25-6.6,19.71-21,19.71-21,10.28-7.56,48.67-28,51.56-28.35s12.95,1.89,14.5,2,6.25-3.06,6.25-3.06c13.94,1.15,27.57,12.58,34.08,17.53a17.53,17.53,0,0,1,6.62,12.69s.69,23.88.29,25.14-4.26,4-4.26,4,.13-13.46-9.61-8.69-11.83,21.36-12.73,22.23-48.51,28.39-59.05,34.49c.1-3-.28-6.06-2.53-8.21-2.62-2.5-6.48-2.17-9.58-.91a16.77,16.77,0,0,0-7.78,6.17c-2.8,3.45-4.15,8-4.82,12.31-.08.54-.37,8-.49,8-25.68,8.41-54.14-22.42-54.71-24.83S110.56,176.11,110.56,176.11Z" fill="#2e2e75" opacity="0.33"/><path d="M130.83,198.27c9.6,6.09,19.47,8.76,36.2,6.53-.3,1.19-1.4,5.89-1.59,7.07-.08.54-.37,8-.49,8-25.68,8.41-54.14-22.42-54.71-24.83-.52-2.23.22-16.48.34-18.69C115.19,185.92,116.33,189.08,130.83,198.27Z" fill="#2e2e75" opacity="0.33"/><path d="M119.95,192.66s-.14,3.86-.07,3.93a53.83,53.83,0,0,0,14.87,9.05l.07-3.76S125.91,197.54,119.95,192.66Z" fill="#d7fbff"/><path d="M166,125.45c-2-1.91-19.8,17.89-20.92,20.56s-2.77,4.38.92,8.48,24.54,16.31,28.68,17.32,6.39,3.21,12-1.92S200.72,148,200.72,148,176.1,135.17,166,125.45Z" fill="#a8ebef"/><path d="M146.21,142s-3.94-3.33-6.6-2.13,3.21,5.69,3.21,5.69Z" fill="#1f1971"/><ellipse cx="261.68" cy="160.42" rx="16.44" ry="10.99" transform="translate(3.35 326.18) rotate(-64.2)" fill="#2e2e75"/><ellipse cx="262.76" cy="160.49" rx="8.94" ry="5.98" transform="translate(3.9 327.19) rotate(-64.2)" fill="#ddd"/><path d="M142.57,202.17a4.92,4.92,0,0,1-2-1.13c-1-1.1-.31-2.53.48-3.54a5.25,5.25,0,0,1,3.07-1.87,68.2,68.2,0,0,1,7.36-1.48c1.65-.24,3.31-.44,5-.56a19.38,19.38,0,0,1,5.4.06c1.87.4,1.43,2.81.78,4.06a12.66,12.66,0,0,1-5,4.7,11.43,11.43,0,0,1-4.72,1.45,21.94,21.94,0,0,1-5.28-.41,29.11,29.11,0,0,1-3.8-.9C143.43,202.44,143,202.32,142.57,202.17Z" fill="#a8ebef"/><path d="M110.61,176.08s3.11,6.1,4.94,7.65,2.71.5,2.94-1.05-.92-17.9-1.18-17.9S112.54,167,110.61,176.08Z" fill="#a8ebef"/><path d="M122.14,181.22c.55.26,1.16.78,1.59,1q4.65,2.82,9.27,5.7l4.62,2.87c1,.63,3.26,1.39,2.26,2.89a19.59,19.59,0,0,1-3.85,4.05c-1,.86-1.84,1.13-3.08.4-2.26-1.32-4.52-2.62-6.77-4-1.73-1-3.71-2.31-4.25-4.4a38.91,38.91,0,0,1-1.16-6.64c-.06-.75-.19-2.31,1-2.11A1.71,1.71,0,0,1,122.14,181.22Z" fill="#a8ebef"/><path d="M149.95,213.53a1.9,1.9,0,0,1,1.36,1.78c0,1.91-1.74,1.82-3.08,1.87-1.67.07-16.68-5-26.45-12.66s-11.45-14.15-11.45-14.15l.09-5s2.39,10.39,15.2,18a94,94,0,0,0,16.63,7.79c1.8.64,3.61,1.22,5.45,1.73A17.85,17.85,0,0,1,149.95,213.53Z" fill="#a8ebef"/><path d="M249.79,119.26l10.65.66s1.53.58.63-2-11.2-13.07-24.9-16.24c0,0-19-3.28-15.47-1.93C222.69,100.51,238.16,107.82,249.79,119.26Z" fill="#a8ebef"/><path d="M249.2,136.71c3.48-2.46,7-4.91,10.38-7.44a17.7,17.7,0,0,0-6.23-2,32,32,0,0,0-4,0Z" fill="#a8ebef"/><path d="M225.78,134.14a65,65,0,0,0-20,15,75.43,75.43,0,0,0-13.34,22.39,1.56,1.56,0,0,0,2.27,1.89c5.95-3.71,17.73-11.09,26.22-16.55l2.13-1.37v-.15l2.38-1.7Z" fill="#a8ebef"/><path d="M246.05,127.54a55.15,55.15,0,0,0-9.16,2.1c-2.15.68-4.29,1.48-6.4,2.36l-.34,18.3,14.92-10.67.76-.54Z" fill="#a8ebef"/><ellipse cx="177.97" cy="207.72" rx="17" ry="11.09" transform="translate(-86.5 277.53) rotate(-64.2)" fill="#0b096e"/><ellipse cx="178.97" cy="207.73" rx="9.25" ry="6.03" transform="translate(-85.95 278.43) rotate(-64.2)" fill="#ddd"/><polygon points="177.59 172.66 175.69 133.22 171.62 130.17 173.46 171.58 177.59 172.66" fill="#fff"/><polygon points="163.17 126.56 165.82 167.58 158.12 163.09 157.2 131.94 163.17 126.56" fill="#fff"/><rect x="222.55" y="43.76" width="6.2" height="41.08" rx="1.26" ry="1.26" fill="#bc532a"/><path d="M240.94,52.17c-1.43-6.2-7.77-33.51-19-25.48-5.76,4.11-7.39,10.54-9.7,16.83-1.91,5.21-3.49,10.69-3.58,16.27C208.46,71.15,220,72.54,228.86,72.5c5.1,0,12.38-3,13.57-8.57.72-3.34-.51-7.28-1.22-10.55Q241.08,52.77,240.94,52.17Z" fill="#2c9135"/><path d="M241.48,53.37q-.13-.6-.27-1.21c-1.26-5.48-6.37-27.47-15.32-26.93,2.66,11.59,6.57,23.84,4.48,35.7a27.13,27.13,0,0,1-4.73,11.49c1.19.06,2.36.08,3.49.07,5.1,0,12.38-3,13.57-8.57C243.42,60.58,242.2,56.64,241.48,53.37Z" fill="#156819"/><rect x="194.38" y="67.48" width="3.74" height="24.82" rx="1.26" ry="1.26" fill="#bc532a"/><path d="M205.49,72.56c-.86-3.74-4.7-20.25-11.49-15.4-3.48,2.48-4.47,6.37-5.86,10.17A30.27,30.27,0,0,0,186,77.16c-.11,6.87,6.87,7.71,12.22,7.68,3.08,0,7.48-1.83,8.2-5.18.43-2-.31-4.4-.74-6.37Z" fill="#2c9135"/><path d="M205.82,73.28l-.16-.73c-.76-3.31-3.85-16.6-9.25-16.27,1.6,7,4,14.4,2.71,21.57a16.39,16.39,0,0,1-2.86,6.94c.72,0,1.43,0,2.11,0,3.08,0,7.48-1.83,8.2-5.18C207,77.64,206.25,75.26,205.82,73.28Z" fill="#156819"/><polygon points="254.77 99.42 280 84.92 271.9 80.21 246.7 94.76 254.77 99.42" fill="#a2b3f9"/><polygon points="270.1 108.54 295.33 94.05 287.23 89.33 262.03 103.88 270.1 108.54" fill="#a2b3f9"/><polygon points="283.64 116.43 308.87 101.94 300.76 97.22 275.57 111.77 283.64 116.43" fill="#a2b3f9"/><polygon points="298.14 125.53 323.36 111.04 315.26 106.32 290.07 120.87 298.14 125.53" fill="#a2b3f9"/><polygon points="312.7 133.8 337.93 119.3 329.83 114.59 304.63 129.14 312.7 133.8" fill="#a2b3f9"/><polygon points="327.84 143.4 353.07 128.91 344.97 124.19 319.77 138.74 327.84 143.4" fill="#a2b3f9"/><rect x="334.64" y="130.35" width="5.68" height="37.66" rx="1.26" ry="1.26" fill="#bc532a"/><path d="M351.5,138.05c-1.31-5.68-7.13-30.73-17.44-23.37-5.28,3.77-6.78,9.67-8.89,15.43A46,46,0,0,0,321.89,145c-.17,10.42,10.43,11.69,18.54,11.66,4.68,0,11.35-2.78,12.44-7.86.66-3.06-.46-6.67-1.12-9.67Q351.63,138.61,351.5,138.05Z" fill="#2c9135"/><path d="M352,139.16q-.12-.55-.25-1.11c-1.16-5-5.84-25.19-14-24.7,2.44,10.63,6,21.86,4.11,32.74a24.88,24.88,0,0,1-4.34,10.53c1.09.05,2.16.07,3.2.07,4.68,0,11.35-2.78,12.44-7.86C353.77,145.77,352.65,142.16,352,139.16Z" fill="#156819"/></svg>