<svg id="Layer_2" data-name="Layer 2" xmlns="http://www.w3.org/2000/svg" xmlns:xlink="http://www.w3.org/1999/xlink" viewBox="0 0 400 300"><defs><linearGradient id="linear-gradient" x1="266.2" y1="139.9" x2="255.7" y2="145.49" gradientUnits="userSpaceOnUse"><stop offset="0.01" stop-color="#859209"/><stop offset="0.99" stop-color="#a2c609"/></linearGradient><linearGradient id="linear-gradient-2" x1="240.65" y1="106.66" x2="228.9" y2="112.91" xlink:href="#linear-gradient"/><linearGradient id="linear-gradient-3" x1="77.4" y1="213.04" x2="61.38" y2="221.57" xlink:href="#linear-gradient"/><linearGradient id="linear-gradient-4" x1="167.93" y1="219.69" x2="186.46" y2="191.74" gradientUnits="userSpaceOnUse"><stop offset="0" stop-color="#ddd"/><stop offset="0.99" stop-color="#999"/></linearGradient></defs><title>aaa</title><path d="M374.84,162.51l-137.51-80a6.5,6.5,0,0,0-6.5,0L25.2,200.22a6.5,6.5,0,0,0,0,11.28l131.5,75.92a21.23,21.23,0,0,0,21.22,0L374.82,173.76A6.5,6.5,0,0,0,374.84,162.51Z" fill="#a2c609"/><path d="M266.47,135c-3.51,2.1-9.07,5.15-12.65,7.13q-1.67.92-3.32,1.87l8.22,4.62,12.49-6.89C270.13,141.11,269.44,137.65,266.47,135Z" fill="url(#linear-gradient)"/><path d="M240.94,101.2c-3.92,2.34-10.14,5.76-14.14,8q-1.86,1-3.71,2.08l9.19,5.17,14-7.7C245,108,244.27,104.14,240.94,101.2Z" fill="url(#linear-gradient-2)"/><path d="M77.8,205.59c-5.35,3.19-13.83,7.85-19.29,10.87q-2.54,1.4-5.06,2.84l12.54,7,19-10.5C83.39,214.89,82.34,209.61,77.8,205.59Z" fill="url(#linear-gradient-3)"/><polygon points="74.84 171.64 226.52 259.21 333.8 197.3 182.6 109.86 74.84 171.64" fill="#ddd"/><path d="M173.06,148.23l-68.47,42.09,96.79,54.4L253,216.26C241.15,209.29,184.81,155.41,173.06,148.23Z" fill="url(#linear-gradient-4)"/><path d="M310.61,125.08s-14.73,7.81-12.59,18.38,13.19-1,17.11,11.13-3.21,22.9,12.12,24.82S370.46,160,370.46,160Z" fill="#f2d79c"/><path d="M271.08,182.45l-6.16-10.39c-6.76-5.27-23.43-17.69-23.43-17.69-4.82-6.06-18.11-19.32-18.11-19.32-9.44-6.95-44.7-25.74-47.36-26s-11.89,1.74-13.32,1.88S157,108.1,157,108.1c-12.81,1.06-25.32,11.55-31.3,16.1a16.1,16.1,0,0,0-6.08,11.66s-.64,21.94-.27,23.09,3.92,3.66,3.92,3.66-.12-12.36,8.83-8,10.86,19.62,11.69,20.42,44.55,26.07,54.24,31.68c-.09-2.73.26-5.57,2.33-7.54,2.4-2.29,5.95-2,8.8-.83a15.41,15.41,0,0,1,7.15,5.67c2.57,3.17,3.81,7.34,4.43,11.31.08.49.34,7.33.45,7.36,23.58,7.72,49.73-20.59,50.25-22.8S271.08,182.45,271.08,182.45Z" fill="#dd9933"/><path d="M271.08,182.45l-6.16-10.39c-6.76-5.27-23.43-17.69-23.43-17.69-4.82-6.06-18.11-19.32-18.11-19.32-9.44-6.95-44.7-25.74-47.36-26s-11.89,1.74-13.32,1.88S157,108.1,157,108.1c-12.81,1.06-25.32,11.55-31.3,16.1a16.1,16.1,0,0,0-6.08,11.66s-.64,21.94-.27,23.09,3.92,3.66,3.92,3.66-.12-12.36,8.83-8,10.86,19.62,11.69,20.42,44.55,26.07,54.24,31.68c-.09-2.73.26-5.57,2.33-7.54,2.4-2.29,5.95-2,8.8-.83a15.41,15.41,0,0,1,7.15,5.67c2.57,3.17,3.81,7.34,4.43,11.31.08.49.34,7.33.45,7.36,23.58,7.72,49.73-20.59,50.25-22.8S271.08,182.45,271.08,182.45Z" fill="#2e2e75" opacity="0.33"/><path d="M252.51,202.83c-8.82,5.59-17.89,8-33.25,6,.28,1.09,1.29,5.41,1.46,6.5.08.49.34,7.33.45,7.36,23.58,7.72,49.73-20.59,50.25-22.8.48-2-.2-15.14-.31-17.16C266.88,191.49,265.82,194.39,252.51,202.83Z" fill="#2e2e75" opacity="0.33"/><path d="M240.43,206.41a4.52,4.52,0,0,0,1.81-1c1-1,.29-2.32-.44-3.25A4.82,4.82,0,0,0,239,200.4a62.64,62.64,0,0,0-6.76-1.36c-1.52-.22-3-.4-4.57-.52a17.8,17.8,0,0,0-5,.06c-1.71.36-1.31,2.59-.71,3.73a11.63,11.63,0,0,0,4.63,4.32,10.5,10.5,0,0,0,4.34,1.33,20.16,20.16,0,0,0,4.85-.37,26.73,26.73,0,0,0,3.49-.82C239.64,206.66,240,206.54,240.43,206.41Z" fill="#d4f5ff"/><path d="M271.08,182.45s-2.86,5.6-4.54,7-2.49.46-2.7-1,.85-16.44,1.08-16.44S269.31,174.11,271.08,182.45Z" fill="#d4f5ff"/><path d="M260.49,187.17c-.5.24-1.06.72-1.46,1q-4.27,2.59-8.51,5.23L246.28,196c-.93.58-3,1.28-2.07,2.66a18,18,0,0,0,3.54,3.72,2.13,2.13,0,0,0,2.83.37c2.07-1.21,4.16-2.4,6.21-3.64,1.59-1,3.41-2.12,3.91-4a35.73,35.73,0,0,0,1.07-6.1c.05-.69.17-2.12-.87-1.93A1.57,1.57,0,0,0,260.49,187.17Z" fill="#d4f5ff"/><path d="M262.5,197.67s.13,3.54.07,3.61a49.44,49.44,0,0,1-13.66,8.31l-.06-3.45A83.41,83.41,0,0,0,262.5,197.67Z" fill="#d4f5ff"/><path d="M234.95,216.85a1.75,1.75,0,0,0-1.25,1.63c0,1.75,1.6,1.67,2.83,1.72,1.53.06,15.32-4.61,24.29-11.63s10.51-13,10.51-13l-.09-4.59s-2.2,9.55-14,16.55A86.31,86.31,0,0,1,242,214.68c-1.65.59-3.32,1.12-5,1.59A16.4,16.4,0,0,0,234.95,216.85Z" fill="#d4f5ff"/><path d="M220.25,135.94c1.83-1.75,18.19,16.43,19.22,18.88s2.54,4-.84,7.79-22.54,15-26.34,15.91-5.86,2.95-11-1.77-13-20.11-13-20.11S210.93,144.87,220.25,135.94Z" fill="#d4f5ff"/><path d="M238.38,151.1s3.62-3.06,6.06-2-2.95,5.23-2.95,5.23Z" fill="#1f1971"/><path d="M142,130.26l-9.78.6s-1.41.53-.58-1.83,10.28-12,22.87-14.92c0,0,17.43-3,14.2-1.77C166.85,113,152.63,119.76,142,130.26Z" fill="#d4f5ff"/><ellipse cx="132.33" cy="168.06" rx="10.09" ry="15.1" transform="translate(-59.96 74.36) rotate(-25.8)" fill="#2e2e75"/><ellipse cx="131.33" cy="168.13" rx="5.49" ry="8.21" transform="translate(-60.09 73.93) rotate(-25.8)" fill="#ddd"/><path d="M142.49,146.29c-3.19-2.26-6.39-4.51-9.53-6.84a16.26,16.26,0,0,1,5.72-1.87,29.42,29.42,0,0,1,3.65,0Z" fill="#d4f5ff"/><path d="M164,143.92a59.69,59.69,0,0,1,18.39,13.82,69.28,69.28,0,0,1,12.25,20.56,1.43,1.43,0,0,1-2.09,1.73c-5.46-3.41-16.29-10.19-24.09-15.2l-2-1.26v-.14l-2.18-1.56Z" fill="#d4f5ff"/><path d="M145.38,137.87a50.65,50.65,0,0,1,8.41,1.93c2,.63,3.94,1.35,5.88,2.16l.32,16.81L146.28,149l-.7-.5Z" fill="#d4f5ff"/><path d="M165.15,115.85s-11.43,6.07-15.81,11.65a1.78,1.78,0,0,0,2.72,1.22s14.37-11.66,19.13-13.33" fill="#0b096e"/><path d="M199.53,126.25c2.45-1.16,4.93-2.3,7.05-3.25a1.1,1.1,0,0,0,.14.19,19.38,19.38,0,0,1,6.14,10.48,59,59,0,0,1-7.43,5,26.77,26.77,0,0,0-5.82-12.32Z" fill="#6ca9e0"/><path d="M208.9,122c2-.89,3.33-1.45,3.33-1.45s2.48.41,5,6.23c.61,1.39-.43,3.21-2.38,5.14A21.44,21.44,0,0,0,208.9,122Z" fill="#6ca9e0"/><path d="M188.51,132.6c.33-.94,4.46-3.17,9.18-5.47a1.22,1.22,0,0,0,.29.91,24.48,24.48,0,0,1,5.29,11.81c-5.13,2.75-10,4.64-11.24,4.29C183.68,141.86,187.7,134.88,188.51,132.6Z" fill="#6ca9e0"/><path d="M206.73,123.19a1.1,1.1,0,0,1-.14-.19l2.31-1a21.44,21.44,0,0,1,6,9.92c-.59.59-1.27,1.18-2,1.78A19.38,19.38,0,0,0,206.73,123.19Z" fill="#307eb7"/><path d="M197.68,127.14l1.85-.89.09.08a26.77,26.77,0,0,1,5.82,12.32c-.72.42-1.45.82-2.18,1.21A24.48,24.48,0,0,0,198,128,1.22,1.22,0,0,1,197.68,127.14Z" fill="#307eb7"/><polygon points="182.1 147.5 194.03 140.95 193.75 125.97 180.84 133.12 182.1 147.5" fill="#ffc655"/><path d="M212.45,110.6l.18,9.81a.76.76,0,0,1-.37.66l-18.4,10.86c-.49.29,0-.94,0-1.5l0-10a.76.76,0,0,1,.38-.7L211.31,110A.76.76,0,0,1,212.45,110.6Z" fill="#efdec2"/><path d="M212.42,114.86s.27,1.27,0,1.27-18.67,11.06-18.67,11.06l0-1.22Z" fill="#bbac97"/><polygon points="200.25 120.75 200.3 123.84 198.27 125.08 198.22 121.92 200.25 120.75" fill="#f9c74c"/><path d="M193.75,126c-1.14.49-11.91,7.13-11.91,7.13l-21.62-11.81s8.23-5.6,9-5.35S193.75,126,193.75,126Z" fill="#ffdd93"/><path d="M211.78,109.86s-22-12.84-22.32-12.72-17.55,10.58-17.55,10.58l21.95,12.75Z" fill="#f2e7d3"/><polygon points="208.21 115.88 208.27 118.98 206.24 120.22 206.18 117.06 208.21 115.88" fill="#f9c74c"/><polygon points="160.22 121.29 160.49 135.86 182.1 147.5 181.84 133.1 160.22 121.29" fill="#eead3a"/><path d="M194,119.63s2.92,1.63.36,5.52-4.6,4.14-7.73,3.27a5.55,5.55,0,0,1-1.2-3.41C185.3,122.77,187.67,116.82,194,119.63Z" fill="#f77750"/><path d="M170.27,107a2.65,2.65,0,0,1,1.54.56c3.86,2.42,8,4.33,12.06,6.42,1.17.61,2.35,1.22,3.47,1.93l6.64,3.69.25.14s-3.08-1.17-5.29.58-4.41,5.38-2.34,8.07c0,0-21.45-11.73-21.46-12.07a2.75,2.75,0,0,0-.21-.67,10.69,10.69,0,0,1-.36-1.48,6.11,6.11,0,0,1,.54-4,5.51,5.51,0,0,1,2.5-2.22,11.84,11.84,0,0,1,1.58-.61c.34-.11.66-.26,1-.34Z" fill="#ea5523"/><path d="M187.54,124.84a3.1,3.1,0,0,1,2.18-2.93c1.09-.28,2.32.11,2.44,1.3a2.73,2.73,0,0,1-2.1,2.56c-1.35.15-1.11-1.33-.69-2,.27-.45,1-.06.73.39q0,1.16.66.29,1.14-.89-.81-1.73c-.7.05-1.25.87-1.44,1.42-.62,1.81.63,3.28,2.63,2.07a3.6,3.6,0,0,0,1.88-3.13c-.15-1.7-1.82-2.18-3.34-1.87-.53.11-.77-.66-.24-.77a3.67,3.67,0,0,1,3.8,1,3.34,3.34,0,0,1-.06,3.94,4.31,4.31,0,0,1-3.54,2.08A2.13,2.13,0,0,1,187.54,124.84Z" fill="#c63f1a"/><path d="M191.84,148.6a163.72,163.72,0,0,0,21.95-13.39c1.62-1.17,3.22,1.48,1.61,2.65a163.72,163.72,0,0,1-21.95,13.39C191.68,152.15,190.06,149.51,191.84,148.6Z" fill="#0b096e"/><path d="M210.92,137.24c.39-.27-6.45-22.48-7-23-1.21-1.07-21.39-13-21.39-13l-1.28.78s21.68,13,21.68,13,7.17,21.92,7.12,22.74" fill="#54547a"/><path d="M204.26,141.85c.39-.27-6.61-23-7.15-23.45-1.21-1.07-21.39-13-21.39-13l-1.28.78s21.68,13,21.68,13,7.25,22.47,7.19,23.29" fill="#54547a"/><ellipse cx="209.21" cy="211.5" rx="10.18" ry="15.61" transform="translate(-71.2 112.15) rotate(-25.8)" fill="#0b096e"/><ellipse cx="208.29" cy="211.51" rx="5.54" ry="8.49" transform="translate(-71.3 111.76) rotate(-25.8)" fill="#ddd"/><polygon points="207.62 145.45 209.84 179.25 214.88 177.49 211.97 142.5 207.62 145.45" fill="#fff" opacity="0.67"/><path d="M220.25,135.94,223,173.18l1.92-1.12c.29-.17-2.39-35.33-2.39-35.33S220.74,135.49,220.25,135.94Z" fill="#fff" opacity="0.67"/><rect x="236.69" y="39.52" width="10.48" height="69.47" rx="2.01" ry="2.01" fill="#bc532a"/><path d="M267.8,53.74c-2.42-10.48-13.15-56.68-32.17-43.1-9.74,7-12.5,17.83-16.4,28.46-3.23,8.81-5.91,18.07-6.06,27.52-.31,19.22,19.24,21.57,34.21,21.5,8.63,0,20.93-5.13,22.95-14.5,1.21-5.65-.85-12.31-2.06-17.84Q268,54.76,267.8,53.74Z" fill="#2c9135"/><path d="M268.72,55.77q-.22-1-.46-2c-2.14-9.27-10.78-46.46-25.91-45.55,4.49,19.61,11.11,40.32,7.58,60.39a45.89,45.89,0,0,1-8,19.42c2,.1,4,.13,5.9.12,8.63,0,20.93-5.13,22.95-14.5C272,68,269.92,61.31,268.72,55.77Z" fill="#156819"/><rect x="264.45" y="93.73" width="7.31" height="48.43" rx="1.74" ry="1.74" fill="#bc532a"/><path d="M286.14,103.63c-1.69-7.31-9.17-39.52-22.43-30C256.92,78.44,255,86,252.28,93.43c-2.25,6.14-4.12,12.6-4.22,19.19-.21,13.4,13.42,15,23.85,15,6,0,14.59-3.58,16-10.11.85-3.94-.6-8.58-1.44-12.44Q286.3,104.35,286.14,103.63Z" fill="#2c9135"/><path d="M286.78,105.05q-.16-.71-.32-1.42c-1.49-6.46-7.52-32.39-18.06-31.76,3.13,13.67,7.75,28.11,5.29,42.1a32,32,0,0,1-5.58,13.54c1.4.07,2.78.09,4.11.08,6,0,14.59-3.58,16-10.11C289.06,113.56,287.62,108.91,286.78,105.05Z" fill="#156819"/><rect x="75.85" y="149.85" width="10.02" height="66.4" rx="2.01" ry="2.01" fill="#bc532a"/><path d="M105.59,163.44c-2.31-10-12.57-54.18-30.75-41.2-9.32,6.65-11.95,17-15.68,27.21-3.09,8.42-5.65,17.28-5.79,26.31-.29,18.37,18.4,20.62,32.7,20.55,8.25,0,20-4.91,21.93-13.86,1.16-5.4-.82-11.77-2-17.06Q105.81,164.41,105.59,163.44Z" fill="#2c9135"/><path d="M106.46,165.38q-.21-1-.44-2c-2-8.86-10.3-44.41-24.76-43.54,4.29,18.74,10.62,38.54,7.25,57.72a43.86,43.86,0,0,1-7.65,18.57c1.92.1,3.82.13,5.64.12,8.25,0,20-4.91,21.93-13.86C109.59,177,107.62,170.67,106.46,165.38Z" fill="#156819"/><path d="M314,127.14s-14.73,7.24-12.59,17.05,13.19-.94,17.11,10.32-3.21,21.24,12.12,23S370.46,160,370.46,160Z" fill="#aad0d6"/></svg>